<?xml version="1.0" encoding="UTF-8"?>
<svg xmlns="http://www.w3.org/2000/svg" xmlns:xlink="http://www.w3.org/1999/xlink" width="20pt" height="20pt" viewBox="0 0 20 20" version="1.1">
<g id="surface1">
<path style=" stroke:none;fill-rule:nonzero;fill:rgb(63.921569%,73.333333%,78.431373%);fill-opacity:1;" d="M 19.449219 16.800781 L 14.859375 12.210938 C 14.179688 13.269531 13.269531 14.179688 12.210938 14.859375 L 16.800781 19.449219 C 17.53125 20.179688 18.71875 20.179688 19.449219 19.449219 C 20.179688 18.71875 20.179688 17.53125 19.449219 16.800781 Z M 15 7.5 C 15 3.359375 11.640625 0 7.5 0 C 3.359375 0 0 3.359375 0 7.5 C 0 11.640625 3.359375 15 7.5 15 C 11.640625 15 15 11.640625 15 7.5 Z M 7.5 13.121094 C 4.398438 13.121094 1.871094 10.601562 1.871094 7.5 C 1.871094 4.398438 4.398438 1.871094 7.5 1.871094 C 10.601562 1.871094 13.121094 4.398438 13.121094 7.5 C 13.121094 10.601562 10.601562 13.121094 7.5 13.121094 Z M 3.121094 7.5 L 4.371094 7.5 C 4.371094 5.78125 5.78125 4.371094 7.5 4.371094 L 7.5 3.121094 C 5.089844 3.121094 3.121094 5.089844 3.121094 7.5 Z M 3.121094 7.5 "/>
</g>
</svg>
