<?xml version="1.0" encoding="UTF-8"?>
<svg xmlns="http://www.w3.org/2000/svg" xmlns:xlink="http://www.w3.org/1999/xlink" width="11pt" height="11pt" viewBox="0 0 11 11" version="1.1">
<g id="surface1">
<path style=" stroke:none;fill-rule:nonzero;fill: #ffffff;fill-opacity:1;" d="M 9.707031 0.859375 L 9.191406 0.859375 L 9.191406 0 L 8.332031 0 L 8.332031 0.859375 L 2.667969 0.859375 L 2.667969 0 L 1.800781 0 L 1.800781 0.859375 L 1.285156 0.859375 C 0.578125 0.859375 0 1.4375 0 2.144531 L 0 9.707031 C 0 10.421875 0.578125 11 1.285156 11 L 9.707031 11 C 10.421875 11 11 10.421875 11 9.707031 L 11 2.144531 C 11 1.4375 10.421875 0.859375 9.707031 0.859375 Z M 1.285156 1.71875 L 1.800781 1.71875 L 1.800781 2.578125 L 2.667969 2.578125 L 2.667969 1.71875 L 8.332031 1.71875 L 8.332031 2.578125 L 9.191406 2.578125 L 9.191406 1.71875 L 9.707031 1.71875 C 9.949219 1.71875 10.140625 1.910156 10.140625 2.144531 L 10.140625 3.175781 L 0.859375 3.175781 L 0.859375 2.144531 C 0.859375 1.910156 1.050781 1.71875 1.285156 1.71875 Z M 9.707031 10.140625 L 1.285156 10.140625 C 1.050781 10.140625 0.859375 9.949219 0.859375 9.707031 L 0.859375 4.035156 L 10.140625 4.035156 L 10.140625 9.707031 C 10.140625 9.949219 9.949219 10.140625 9.707031 10.140625 Z M 1.628906 4.941406 L 2.488281 4.941406 L 2.488281 5.800781 L 1.628906 5.800781 Z M 3.347656 4.941406 L 4.207031 4.941406 L 4.207031 5.800781 L 3.347656 5.800781 Z M 5.066406 4.941406 L 5.925781 4.941406 L 5.925781 5.800781 L 5.066406 5.800781 Z M 6.785156 4.941406 L 7.644531 4.941406 L 7.644531 5.800781 L 6.785156 5.800781 Z M 8.503906 4.941406 L 9.363281 4.941406 L 9.363281 5.800781 L 8.503906 5.800781 Z M 1.628906 6.660156 L 2.488281 6.660156 L 2.488281 7.519531 L 1.628906 7.519531 Z M 3.347656 6.660156 L 4.207031 6.660156 L 4.207031 7.519531 L 3.347656 7.519531 Z M 5.066406 6.660156 L 5.925781 6.660156 L 5.925781 7.519531 L 5.066406 7.519531 Z M 6.785156 6.660156 L 7.644531 6.660156 L 7.644531 7.519531 L 6.785156 7.519531 Z M 1.628906 8.378906 L 2.488281 8.378906 L 2.488281 9.238281 L 1.628906 9.238281 Z M 3.347656 8.378906 L 4.207031 8.378906 L 4.207031 9.238281 L 3.347656 9.238281 Z M 5.066406 8.378906 L 5.925781 8.378906 L 5.925781 9.238281 L 5.066406 9.238281 Z M 6.785156 8.378906 L 7.644531 8.378906 L 7.644531 9.238281 L 6.785156 9.238281 Z M 8.503906 6.660156 L 9.363281 6.660156 L 9.363281 7.519531 L 8.503906 7.519531 Z M 8.503906 6.660156 "/>
</g>
</svg>
